# xmcd
#
# Track frame offsets: 
#        150
#        9692
#        22005
#        35514
#        49721
#        58082
#        70605
#        90141
#        100709
#        115426
#        126439
#        140102
#        153018
#        164027
#        189232
#        209817
#        224575
#        252218
#        266895
#        283311
#        299395
#
# Disc length: 4425 seconds
#
# Revision: 1
# Processed by: cddbd v1.5.2PL0 Copyright (c) Steve Scherf et al.
# Submitted via: ExactAudioCopy v0.99pb4
#
DISCID=4a114715
DTITLE=Various Artist - Battle of Guitars [disc 2]
DYEAR=2005
DGENRE=Jazz
TTITLE0=Les Paul Trio - Coquette [1947]
TTITLE1=Billy Bauer and Lennie Tristano - Out on a Limb [1946]
TTITLE2=Les Paul Trio - At Sundown [1947]
TTITLE3=Billy Bauer and Lennie Tristano - Interlude [1946]
TTITLE4=Les Paul Trio - Melodic Meal [1947]
TTITLE5=Billy Bauer and Lennie Tristano - Retrospection [1947]
TTITLE6=Jimmy Raney and Stan Getz - Lee [1953]
TTITLE7=Johnny Smith  Stan Getz Quintet - Sometimes I'm Happy [1952]
TTITLE8=Barney Kessel with the Oscar Peterson Trio - Strike Up the Ban
TTITLE8=d [1952]
TTITLE9=Johnny Smith  Stan Getz Quintet - Where or When [1952]
TTITLE10=Jimmy Raney and Sonny Clark - Yesterdays [1954]
TTITLE11=Barney Kessel and Bud Shank - Vicky's Dream [1953]
TTITLE12=Johnny Smith  Stan Getz Quintet - Nice Work if You Can Get I
TTITLE12=t [1952]
TTITLE13=Herb Ellis with the Oscar Peterson Trio - I Want to Be Happy 
TTITLE13=[1953]
TTITLE14=Jimmy Raney and Hal Overton - Minor [1954]
TTITLE15=Barney Kessel and Bud Shank - Salute to Charlie Christian [1953
TTITLE15=]
TTITLE16=Herb Ellis with the Oscar Peterson Trio - Tea for Two [1953]
TTITLE17=Johnny Smith  Stan Getz Quintet - Moonlight in Vermont [1952
TTITLE17=]
TTITLE18=Jimmy Raney and Sonny Clark - Body and Soul [1954]
TTITLE19=Barney Kessel and Bud Shank - What Is There to Say [1953]
TTITLE20=Herb Ellis with the Oscar Peterson Trio - Lover [1953]
EXTD=4CD: Documents/Membran 222616-354 (2005-02-21), EAN 4011222226167
EXTD=, ISBN 3-86562-191-0.
EXTT0=
EXTT1=
EXTT2=
EXTT3=
EXTT4=
EXTT5=
EXTT6=
EXTT7=
EXTT8=
EXTT9=
EXTT10=
EXTT11=
EXTT12=
EXTT13=
EXTT14=
EXTT15=
EXTT16=
EXTT17=
EXTT18=
EXTT19=
EXTT20=
PLAYORDER=
